<svg id="Flat" height="512" viewBox="0 0 512 512" width="512" xmlns="http://www.w3.org/2000/svg"><circle cx="312" cy="256" fill="#e9eef2" r="152"/><g fill="#ffe76c"><path d="m192 376h-112a8 8 0 0 1 0-16h112a8 8 0 0 1 0 16z"/><path d="m48 376h-8a8 8 0 0 1 0-16h8a8 8 0 0 1 0 16z"/><path d="m320 432h-192a8 8 0 0 1 0-16h192a8 8 0 0 1 0 16z"/><path d="m96 432h-64a8 8 0 0 1 0-16h64a8 8 0 0 1 0 16z"/><path d="m144 224h-48a8 8 0 0 1 0-16h48a8 8 0 0 1 0 16z"/><path d="m144 304h-48a8 8 0 0 1 0-16h48a8 8 0 0 1 0 16z"/><path d="m80 264h-48a8 8 0 0 1 0-16h48a8 8 0 0 1 0 16z"/><path d="m192 152h-112a8 8 0 0 1 0-16h112a8 8 0 0 1 0 16z"/><path d="m48 152h-8a8 8 0 0 1 0-16h8a8 8 0 0 1 0 16z"/><path d="m320 96h-192a8 8 0 0 1 0-16h192a8 8 0 0 1 0 16z"/><path d="m96 96h-64a8 8 0 0 1 0-16h64a8 8 0 0 1 0 16z"/></g><path d="m312 136a8 8 0 0 1 -8-8v-16a8 8 0 0 1 16 0v16a8 8 0 0 1 -8 8z" fill="#9aa3a8"/><path d="m312 408a8 8 0 0 1 -8-8v-16a8 8 0 0 1 16 0v16a8 8 0 0 1 -8 8z" fill="#9aa3a8"/><path d="m456 264h-16a8 8 0 0 1 0-16h16a8 8 0 0 1 0 16z" fill="#9aa3a8"/><path d="m184 264h-16a8 8 0 0 1 0-16h16a8 8 0 0 1 0 16z" fill="#9aa3a8"/><path d="m413.823 365.823a7.976 7.976 0 0 1 -5.657-2.343l-11.313-11.313a8 8 0 0 1 11.314-11.314l11.313 11.314a8 8 0 0 1 -5.657 13.656z" fill="#9aa3a8"/><path d="m221.49 173.49a7.976 7.976 0 0 1 -5.657-2.343l-11.313-11.314a8 8 0 0 1 11.314-11.313l11.313 11.313a8 8 0 0 1 -5.657 13.657z" fill="#9aa3a8"/><path d="m402.51 173.49a8 8 0 0 1 -5.657-13.657l11.313-11.313a8 8 0 0 1 11.314 11.313l-11.313 11.314a7.976 7.976 0 0 1 -5.657 2.343z" fill="#9aa3a8"/><path d="m210.177 365.823a8 8 0 0 1 -5.657-13.656l11.313-11.314a8 8 0 1 1 11.314 11.314l-11.313 11.313a7.976 7.976 0 0 1 -5.657 2.343z" fill="#9aa3a8"/><path d="m413.657 250.343-16-16a8 8 0 0 0 -11.314 11.314l2.343 2.343h-68.686v-52.686l2.343 2.343a8 8 0 1 0 11.314-11.314l-16-16a8 8 0 0 0 -11.314 0l-16 16a8 8 0 0 0 11.314 11.314l2.343-2.343v60.686a8 8 0 0 0 8 8h76.686l-2.343 2.343a8 8 0 0 0 11.314 11.314l16-16a8 8 0 0 0 0-11.314z" fill="#9aa3a8"/><circle cx="312" cy="256" fill="#ffb632" r="16"/><path d="m312 80a176 176 0 1 0 176 176 176 176 0 0 0 -176-176zm0 320a144 144 0 1 1 144-144 144 144 0 0 1 -144 144z" fill="#ffb632"/></svg>